<svg xmlns="http://www.w3.org/2000/svg" width="1280" height="720" viewBox="0 0 1280 720" role="img" aria-label="">
  <defs>
    <linearGradient id="bg" x1="0" x2="0" y1="0" y2="1">
      <stop offset="0" stop-color="#121a2f"/>
      <stop offset="1" stop-color="#0b0b0c"/>
    </linearGradient>
  </defs>
  <rect width="1280" height="720" fill="url(#bg)"/>
  <g shape-rendering="crispEdges">
    <rect x="0" y="520" width="1280" height="200" fill="#111713"/>
    <rect x="0" y="482" width="1280" height="42" fill="#243c2b"/>
    <rect x="290" y="360" width="700" height="54" fill="#6b4f2b"/>
    <rect x="340" y="315" width="600" height="48" fill="#8c6633"/>
    <rect x="410" y="270" width="460" height="48" fill="#a57a3f"/>
    <rect x="190" y="300" width="130" height="170" fill="#1b2240"/>
    <rect x="960" y="300" width="130" height="170" fill="#342219"/>
    <rect x="190" y="260" width="130" height="40" fill="#223fff"/>
    <rect x="960" y="260" width="130" height="40" fill="#f7a41d"/>
    <rect x="226" y="218" width="58" height="42" fill="#d8d8d8"/>
    <rect x="996" y="218" width="58" height="42" fill="#d8d8d8"/>
    <rect x="570" y="188" width="140" height="82" fill="#19191c"/>
    <rect x="596" y="152" width="88" height="36" fill="#f7a41d"/>
    <rect x="512" y="470" width="42" height="74" fill="#223fff"/>
    <rect x="726" y="470" width="42" height="74" fill="#f7a41d"/>
    <rect x="450" y="530" width="380" height="18" fill="#f7a41d" opacity=".65"/>
  </g>
</svg>
